<svg width="48" height="48" viewBox="0 0 48 48" fill="none" xmlns="http://www.w3.org/2000/svg">
<path d="M0 16.1C0 10.4051 0 7.55764 1.12587 5.39026C2.07462 3.56382 3.56382 2.07462 5.39026 1.12587C7.55764 0 10.4051 0 16.1 0H31.9C37.5949 0 40.4424 0 42.6097 1.12587C44.4362 2.07462 45.9254 3.56382 46.8741 5.39026C48 7.55764 48 10.4051 48 16.1V31.9C48 37.5949 48 40.4424 46.8741 42.6097C45.9254 44.4362 44.4362 45.9254 42.6097 46.8741C40.4424 48 37.5949 48 31.9 48H16.1C10.4051 48 7.55764 48 5.39026 46.8741C3.56382 45.9254 2.07462 44.4362 1.12587 42.6097C0 40.4424 0 37.5949 0 31.9V16.1Z" fill="#FFDD55"/>
<path fill-rule="evenodd" clip-rule="evenodd" d="M44.1246 27.8878C43.9396 31.1941 41.1802 33.7659 37.8694 33.7201H22.834C22.1452 33.7129 21.5894 33.1544 21.5858 32.4665V16.2772C21.5643 15.7088 21.8938 15.1853 22.4164 14.959C22.4164 14.959 23.7993 14 26.7123 14C28.492 13.9982 30.2386 14.4777 31.7678 15.3891C34.1797 16.8079 35.8867 19.1731 36.4749 21.9083C36.9939 21.762 37.5309 21.6892 38.0697 21.691C39.7039 21.6811 41.2709 22.3349 42.4131 23.504C43.5553 24.6722 44.1731 26.2545 44.1255 27.8878H44.1246ZM19.7091 17.3009C20.1626 22.7919 20.4921 27.7998 19.7091 33.2729C19.6821 33.5198 19.4729 33.7075 19.2242 33.7075C18.9746 33.7075 18.7662 33.5198 18.7384 33.2729C18.0083 27.8465 18.3262 22.7443 18.7384 17.3009C18.7177 17.115 18.8057 16.9327 18.9647 16.834C19.1227 16.7352 19.3239 16.7352 19.4837 16.834C19.6417 16.9327 19.7297 17.115 19.7091 17.3009ZM16.6668 33.2783C16.6291 33.5288 16.4136 33.7129 16.1612 33.7129C15.908 33.7129 15.6925 33.5288 15.6548 33.2783C15.1106 28.5963 15.1106 23.8668 15.6548 19.1848C15.6826 18.9244 15.9026 18.7269 16.1639 18.7269C16.4252 18.7269 16.6444 18.9244 16.6731 19.1848C17.2774 23.8632 17.2747 28.5999 16.6668 33.2783ZM13.6182 18.708C14.1121 23.7393 14.3366 28.247 13.6128 33.2666C13.6128 33.536 13.3937 33.7551 13.1243 33.7551C12.855 33.7551 12.6359 33.536 12.6359 33.2666C11.9355 28.3117 12.1707 23.6746 12.6359 18.708C12.6628 18.4566 12.8747 18.268 13.127 18.268C13.3794 18.268 13.5913 18.4566 13.6182 18.708ZM10.5652 33.2846C10.5364 33.5378 10.3227 33.73 10.0668 33.73C9.81178 33.73 9.59716 33.5378 9.57022 33.2846C9.0081 28.916 9.0081 24.4936 9.57022 20.1259C9.57022 19.8466 9.79651 19.6203 10.0758 19.6203C10.355 19.6203 10.5822 19.8466 10.5822 20.1259C11.1794 24.4918 11.1731 28.9196 10.5643 33.2846H10.5652ZM7.51569 23.416C8.28704 26.8282 7.93953 29.8418 7.48696 33.3196C7.45014 33.5513 7.2499 33.7219 7.01553 33.7219C6.78206 33.7219 6.58182 33.5513 6.545 33.3196C6.13284 29.8894 5.79161 26.8049 6.51537 23.4151C6.51537 23.1394 6.73986 22.9149 7.01553 22.9149C7.2921 22.9149 7.51569 23.1394 7.51569 23.416ZM4.47341 22.8979C5.1801 26.3936 4.95023 29.3533 4.45545 32.8607C4.39708 33.3789 3.509 33.3843 3.46141 32.8607C3.01422 29.4063 2.80231 26.3577 3.44345 22.8979C3.47219 22.6348 3.69488 22.4354 3.95888 22.4354C4.22377 22.4354 4.44557 22.6348 4.47341 22.8979ZM1.40239 24.5923C2.1432 26.9109 1.88998 28.7948 1.37276 31.1717C1.34582 31.4159 1.13928 31.6009 0.893243 31.6009C0.647202 31.6009 0.440675 31.4159 0.412838 31.1717C-0.0343455 28.8415 -0.215732 26.9171 0.372432 24.5923C0.39937 24.3292 0.622063 24.1299 0.886961 24.1299C1.15186 24.1299 1.37365 24.3292 1.40149 24.5923H1.40239Z" fill="#FF5500"/>
</svg>
